TITLE ""
FILE "Disc4Track40.mp3" MP3
  TRACK 01 AUDIO
    TITLE "Disc4Track40_01"
    INDEX 01 00:00:00
  TRACK 02 AUDIO
    TITLE "Disc4Track40_02"
    INDEX 01 00:01:23
  TRACK 03 AUDIO
    TITLE "Disc4Track40_03"
    INDEX 01 00:04:45
  TRACK 04 AUDIO
    TITLE "Disc4Track40_04"
    INDEX 01 00:06:01
  TRACK 05 AUDIO
    TITLE "Disc4Track40_05"
    INDEX 01 00:10:73
  TRACK 06 AUDIO
    TITLE "Disc4Track40_06"
    INDEX 01 00:11:30
  TRACK 07 AUDIO
    TITLE "Disc4Track40_07"
    INDEX 01 00:12:66
  TRACK 08 AUDIO
    TITLE "Disc4Track40_08"
    INDEX 01 00:15:08
  TRACK 09 AUDIO
    TITLE "Disc4Track40_09"
    INDEX 01 00:16:43
  TRACK 10 AUDIO
    TITLE "Disc4Track40_10"
    INDEX 01 00:21:67
  TRACK 11 AUDIO
    TITLE "Disc4Track40_11"
    INDEX 01 00:22:24
  TRACK 12 AUDIO
    TITLE "Disc4Track40_12"
    INDEX 01 00:23:51
  TRACK 13 AUDIO
    TITLE "Disc4Track40_13"
    INDEX 01 00:26:02
  TRACK 14 AUDIO
    TITLE "Disc4Track40_14"
    INDEX 01 00:27:27
  TRACK 15 AUDIO
    TITLE "Disc4Track40_15"
    INDEX 01 00:32:38
  TRACK 16 AUDIO
    TITLE "Disc4Track40_16"
    INDEX 01 00:32:69
  TRACK 17 AUDIO
    TITLE "Disc4Track40_17"
    INDEX 01 00:34:15
  TRACK 18 AUDIO
    TITLE "Disc4Track40_18"
    INDEX 01 00:35:26
  TRACK 19 AUDIO
    TITLE "Disc4Track40_19"
    INDEX 01 00:36:47
  TRACK 20 AUDIO
    TITLE "Disc4Track40_20"
    INDEX 01 00:37:06
  TRACK 21 AUDIO
    TITLE "Disc4Track40_21"
    INDEX 01 00:38:17
  TRACK 22 AUDIO
    TITLE "Disc4Track40_22"
    INDEX 01 00:40:27
  TRACK 23 AUDIO
    TITLE "Disc4Track40_23"
    INDEX 01 00:41:39
  TRACK 24 AUDIO
    TITLE "Disc4Track40_24"
    INDEX 01 00:44:62
  TRACK 25 AUDIO
    TITLE "Disc4Track40_25"
    INDEX 01 00:45:19
  TRACK 26 AUDIO
    TITLE "Disc4Track40_26"
    INDEX 01 00:46:44
  TRACK 27 AUDIO
    TITLE "Disc4Track40_27"
    INDEX 01 00:48:00
  TRACK 28 AUDIO
    TITLE "Disc4Track40_28"
    INDEX 01 00:49:22
  TRACK 29 AUDIO
    TITLE "Disc4Track40_29"
    INDEX 01 00:55:29
  TRACK 30 AUDIO
    TITLE "Disc4Track40_30"
    INDEX 01 00:55:60
  TRACK 31 AUDIO
    TITLE "Disc4Track40_31"
    INDEX 01 00:57:12
  TRACK 32 AUDIO
    TITLE "Disc4Track40_32"
    INDEX 01 00:58:37
  TRACK 33 AUDIO
    TITLE "Disc4Track40_33"
    INDEX 01 00:59:64
  TRACK 34 AUDIO
    TITLE "Disc4Track40_34"
    INDEX 01 01:02:09
  TRACK 35 AUDIO
    TITLE "Disc4Track40_35"
    INDEX 01 01:02:39
  TRACK 36 AUDIO
    TITLE "Disc4Track40_36"
    INDEX 01 01:03:64
  TRACK 37 AUDIO
    TITLE "Disc4Track40_37"
    INDEX 01 01:05:70
  TRACK 38 AUDIO
    TITLE "Disc4Track40_38"
    INDEX 01 01:07:20
  TRACK 39 AUDIO
    TITLE "Disc4Track40_39"
    INDEX 01 01:07:64
  TRACK 40 AUDIO
    TITLE "Disc4Track40_40"
    INDEX 01 01:09:00
  TRACK 41 AUDIO
    TITLE "Disc4Track40_41"
    INDEX 01 01:11:24
  TRACK 42 AUDIO
    TITLE "Disc4Track40_42"
    INDEX 01 01:12:35
  TRACK 43 AUDIO
    TITLE "Disc4Track40_43"
    INDEX 01 01:17:50
  TRACK 44 AUDIO
    TITLE "Disc4Track40_44"
    INDEX 01 01:18:06
  TRACK 45 AUDIO
    TITLE "Disc4Track40_45"
    INDEX 01 01:19:27
  TRACK 46 AUDIO
    TITLE "Disc4Track40_46"
    INDEX 01 01:20:35
  TRACK 47 AUDIO
    TITLE "Disc4Track40_47"
    INDEX 01 01:21:54
  TRACK 48 AUDIO
    TITLE "Disc4Track40_48"
    INDEX 01 01:23:39
  TRACK 49 AUDIO
    TITLE "Disc4Track40_49"
    INDEX 01 01:24:01
  TRACK 50 AUDIO
    TITLE "Disc4Track40_50"
    INDEX 01 01:25:22
  TRACK 51 AUDIO
    TITLE "Disc4Track40_51"
    INDEX 01 01:26:53
  TRACK 52 AUDIO
    TITLE "Disc4Track40_52"
    INDEX 01 01:27:72
  TRACK 53 AUDIO
    TITLE "Disc4Track40_53"
    INDEX 01 01:29:67
  TRACK 54 AUDIO
    TITLE "Disc4Track40_54"
    INDEX 01 01:30:25
  TRACK 55 AUDIO
    TITLE "Disc4Track40_55"
    INDEX 01 01:31:50
  TRACK 56 AUDIO
    TITLE "Disc4Track40_56"
    INDEX 01 01:33:02
  TRACK 57 AUDIO
    TITLE "Disc4Track40_57"
    INDEX 01 01:34:29
  TRACK 58 AUDIO
    TITLE "Disc4Track40_58"
    INDEX 01 01:34:68
  TRACK 59 AUDIO
    TITLE "Disc4Track40_59"
    INDEX 01 01:36:02
  TRACK 60 AUDIO
    TITLE "Disc4Track40_60"
    INDEX 01 01:37:08
  TRACK 61 AUDIO
    TITLE "Disc4Track40_61"
    INDEX 01 01:38:17
  TRACK 62 AUDIO
    TITLE "Disc4Track40_62"
    INDEX 01 01:40:12
  TRACK 63 AUDIO
    TITLE "Disc4Track40_63"
    INDEX 01 01:40:43
  TRACK 64 AUDIO
    TITLE "Disc4Track40_64"
    INDEX 01 01:41:64
  TRACK 65 AUDIO
    TITLE "Disc4Track40_65"
    INDEX 01 01:43:20
  TRACK 66 AUDIO
    TITLE "Disc4Track40_66"
    INDEX 01 01:44:39
  TRACK 67 AUDIO
    TITLE "Disc4Track40_67"
    INDEX 01 01:49:40
  TRACK 68 AUDIO
    TITLE "Disc4Track40_68"
    INDEX 01 01:49:72
  TRACK 69 AUDIO
    TITLE "Disc4Track40_69"
    INDEX 01 01:51:14
  TRACK 70 AUDIO
    TITLE "Disc4Track40_70"
    INDEX 01 01:52:23
  TRACK 71 AUDIO
    TITLE "Disc4Track40_71"
    INDEX 01 01:53:40
  TRACK 72 AUDIO
    TITLE "Disc4Track40_72"
    INDEX 01 01:54:06
  TRACK 73 AUDIO
    TITLE "Disc4Track40_73"
    INDEX 01 01:55:23
  TRACK 74 AUDIO
    TITLE "Disc4Track40_74"
    INDEX 01 01:56:27
  TRACK 75 AUDIO
    TITLE "Disc4Track40_75"
    INDEX 01 01:57:44
  TRACK 76 AUDIO
    TITLE "Disc4Track40_76"
    INDEX 01 01:59:43
